# xmcd
#
# Track frame offsets:
#	150
#	18270
#	32109
#	49385
#	68517
#	85253
#	103465
#	118403
#	136020
#	152932
#	167460
#
# Disc length: 2428 seconds
#
# Revision: 0
# Processed by: cddbd v1.5.2PL0 Copyright (c) Steve Scherf et al.
# Submitted via: EasyCDDAExtractor 15.3.0.1
#
DISCID=91097a0b
DTITLE=Ednita Nazario - Una Vida
DYEAR=2017
DGENRE=Latin
TTITLE0=Angel De Cristal
TTITLE1=Ni Una Lagrima (Bandolero)
TTITLE2=Solo Una Vez (Featuring Axel)
TTITLE3=Ya No Me Duele Tanto
TTITLE4=Adios
TTITLE5=Ser Tu Amigo (Featuring Gilberto Santa Rosa)
TTITLE6=Loca (Featuring Albita)
TTITLE7=Soy Tuya
TTITLE8=Eras Uno Mas
TTITLE9=A Little Love (Featuring Happy Colors)
TTITLE10=Hoy Brindare
EXTD=
EXTT0=
EXTT1=
EXTT2=
EXTT3=
EXTT4=
EXTT5=
EXTT6=
EXTT7=
EXTT8=
EXTT9=
EXTT10=
PLAYORDER=
